<?xml version="1.0" encoding="utf-8"?>
<svg 
  width="1024px" height="1024px" 
  viewBox="0 0 500 500" 
  xmlns="http://www.w3.org/2000/svg" 
  xmlns:xlink="http://www.w3.org/1999/xlink" 
  xmlns:vrcmm="https://vrcmm.ktrn.dev"
>
  <title>VRCMM</title>
  <defs >
    <vrcmm:file format="svg" path="vrcmm.svg" />
    <vrcmm:comment>
      Logo for VRChatMobileManager
    </vrcmm:comment>
  </defs>

  
  <style>
    #bubble-outline { fill: black; stroke: black; stroke-width: 30px;  }
    #bubble { fill: white; }
    #mmbg { fill: black; }
    #vrc { fill: black; }
    #mm { fill: white; }
  </style>

  <g id="bg" >
    <use id="bubble-outline" x="0" y="0" xlink:href="#bubble" />
    <g id="bubble" >
      <rect x="10%" y="22%" width="80%" height="55%" rx="15" ry="15"/>
      <rect x="55%" y="55%" width="25%" height="15%" rx="15" ry="15" style="transform-origin: center; transform: skewY(30deg);"/>
    </g>
    <rect id="mmbg" x="15%" y="50%" width="70%" height="24%" rx="15" ry="15"/>
  </g>
  <g id="text" >
    <g id="vrc">
      <path style="transform-origin: center; transform: scaleX(1.9) scaleY(1.3) translateX(169px) translateY(32%)" d="M 158.887 28.614 L 158.887 36.133 L 138.33 36.133 L 138.33 22.364 Q 138.33 16.358 137.671 14.869 Q 137.012 13.379 134.766 13.379 Q 132.227 13.379 131.543 15.186 Q 130.859 16.993 130.859 22.999 L 130.859 59.717 Q 130.859 65.479 131.543 67.237 Q 132.227 68.995 134.619 68.995 Q 136.914 68.995 137.622 67.237 Q 138.33 65.479 138.33 58.985 L 138.33 49.073 L 158.887 49.073 L 158.887 52.149 Q 158.887 64.405 157.153 69.532 Q 155.42 74.659 149.487 78.516 Q 143.555 82.374 134.863 82.374 Q 125.83 82.374 119.971 79.102 Q 114.111 75.831 112.207 70.044 Q 110.303 64.258 110.303 52.637 L 110.303 29.542 Q 110.303 20.997 110.889 16.724 Q 111.475 12.452 114.38 8.497 Q 117.285 4.542 122.437 2.271 Q 127.588 0.001 134.277 0.001 Q 143.359 0.001 149.268 3.516 Q 155.176 7.032 157.031 12.281 Q 158.887 17.53 158.887 28.614 Z M 31.836 1.661 L 53.516 1.661 L 43.066 80.713 L 11.865 80.713 L 0 1.661 L 21.68 1.661 Q 25.439 34.327 27.051 56.885 Q 28.662 34.083 30.42 16.358 L 31.836 1.661 Z M 57.031 80.713 L 57.031 1.661 L 71.582 1.661 Q 86.133 1.661 91.284 2.784 Q 96.436 3.907 99.683 8.521 Q 102.93 13.135 102.93 23.243 Q 102.93 32.471 100.635 35.645 Q 98.34 38.819 91.602 39.454 Q 97.705 40.967 99.805 43.506 Q 101.904 46.045 102.417 48.169 Q 102.93 50.293 102.93 59.864 L 102.93 80.713 L 83.838 80.713 L 83.838 54.444 Q 83.838 48.096 82.837 46.583 Q 81.836 45.069 77.588 45.069 L 77.588 80.713 L 57.031 80.713 Z M 77.588 15.186 L 77.588 32.764 Q 81.055 32.764 82.446 31.812 Q 83.838 30.86 83.838 25.635 L 83.838 21.29 Q 83.838 17.53 82.495 16.358 Q 81.152 15.186 77.588 15.186 Z"/>
    </g>
    <g id="mm" >
      <path 
        style="transform-origin: center; transform: scaleX(2) scaleY(1.2) translateX(183px) translateY(52%)" 
        d="
          M 36.621 0 L 63.428 0 L 63.428 79.053 L 45.459 79.053 L 45.459 25.684 L 38.281 79.053 L 25.537 79.053 L 17.969 26.904 L 17.969 79.053 L 0 79.053 L 0 0 L 26.611 0 Q 27.783 7.129 29.102 16.797 L 31.934 36.914 L 36.621 0 Z
          M 108.301 0 L 135.107 0 L 135.107 79.053 L 117.139 79.053 L 117.139 25.684 L 109.961 79.053 L 97.217 79.053 L 89.648 26.904 L 89.648 79.053 L 71.68 79.053 L 71.68 0 L 98.291 0 Q 99.463 7.129 100.781 16.797 L 103.613 36.914 L 108.301 0 Z
        "
        />
    </g>
  </g>

</svg>